<?xml version="1.0" standalone="no"?>
<!DOCTYPE svg PUBLIC "-//W3C//DTD SVG 20010904//EN"
 "http://www.w3.org/TR/2001/REC-SVG-20010904/DTD/svg10.dtd">
<svg version="1.0" xmlns="http://www.w3.org/2000/svg"
 width="1600.000000pt" height="1600.000000pt" viewBox="0 0 1600.000000 1600.000000"
 preserveAspectRatio="xMidYMid meet">
<metadata>
Created by potrace 1.11, written by Peter Selinger 2001-2013
</metadata>
<g transform="translate(0.000000,1600.000000) scale(0.100000,-0.100000)"
fill="#000000" stroke="none">
<path d="M2358 15995 c-2 -2 -34 -5 -73 -8 -293 -23 -672 -133 -925 -270 -100
-53 -164 -90 -170 -97 -3 -3 -25 -18 -50 -34 -127 -82 -333 -265 -449 -400
-74 -86 -242 -328 -250 -361 -1 -5 -8 -17 -16 -25 -17 -19 -110 -209 -154
-315 -59 -141 -156 -461 -177 -585 -3 -14 -13 -70 -24 -125 -10 -55 -22 -127
-25 -160 -4 -33 -8 -67 -10 -75 -2 -8 -7 -53 -11 -100 -3 -47 -8 -94 -11 -105
-12 -54 -10 -557 2 -665 20 -165 22 -180 50 -303 112 -496 376 -1004 770
-1477 122 -145 414 -434 530 -522 17 -12 32 -25 35 -28 5 -7 231 -177 266
-201 21 -14 20 -16 -70 -174 -134 -233 -316 -582 -414 -795 -16 -36 -49 -105
-72 -155 -23 -49 -73 -164 -111 -255 -38 -91 -74 -174 -79 -185 -57 -121 -333
-895 -355 -995 -2 -8 -15 -51 -28 -95 -14 -44 -42 -138 -61 -210 -20 -71 -43
-152 -51 -180 -11 -42 -90 -357 -100 -405 -2 -8 -13 -59 -25 -114 -12 -54 -23
-108 -26 -120 -2 -11 -15 -77 -29 -146 -13 -69 -27 -138 -30 -155 -2 -16 -9
-55 -14 -85 -6 -30 -13 -73 -16 -95 -3 -22 -10 -65 -15 -95 -15 -89 -19 -113
-25 -160 -3 -25 -10 -72 -15 -105 -8 -53 -17 -121 -25 -195 -1 -14 -5 -47 -8
-75 -4 -27 -9 -78 -12 -112 -4 -35 -8 -75 -10 -90 -2 -16 -6 -71 -10 -123 -3
-52 -8 -106 -10 -120 -2 -14 -7 -77 -10 -140 -4 -63 -8 -137 -10 -165 -3 -27
-7 -237 -11 -466 l-7 -417 44 -38 c23 -22 68 -62 98 -90 31 -28 74 -66 96 -85
22 -19 42 -37 45 -40 12 -15 203 -151 275 -196 149 -94 351 -202 485 -258 36
-15 83 -36 105 -46 196 -90 735 -273 1170 -398 230 -65 599 -157 893 -222 23
-5 61 -14 85 -20 23 -5 49 -11 57 -13 8 -2 33 -6 55 -11 22 -4 47 -9 55 -11 8
-1 71 -14 140 -28 69 -14 141 -28 160 -31 19 -3 67 -12 105 -20 143 -28 283
-54 380 -70 55 -9 102 -18 105 -20 3 -2 30 -6 60 -9 56 -7 129 -22 134 -28 2
-1 57 -97 123 -213 144 -253 306 -503 395 -610 9 -11 41 -49 70 -85 30 -36 72
-96 93 -135 48 -88 131 -170 215 -214 35 -19 111 -69 167 -110 261 -194 559
-349 888 -461 198 -68 500 -143 655 -164 25 -3 54 -8 65 -10 26 -5 176 -24
240 -31 259 -26 828 -27 1035 -1 14 2 54 6 90 10 36 4 76 9 90 11 14 2 45 7
70 10 25 3 56 8 70 10 14 3 41 7 60 10 19 4 55 11 80 16 25 6 59 13 75 16 121
19 440 117 632 195 267 107 571 282 759 435 23 18 70 48 105 65 80 40 174 134
219 220 18 35 56 91 84 124 105 127 146 183 242 329 55 83 105 159 111 170 38
63 104 177 128 220 16 28 38 66 50 85 12 19 25 44 29 56 12 40 43 61 98 69 29
4 60 8 68 10 26 5 252 46 306 55 189 31 679 130 949 191 121 28 229 52 240 54
20 4 476 121 505 129 8 3 65 19 125 36 420 118 910 289 1216 423 337 147 673
353 853 522 12 11 62 56 111 100 50 44 94 84 98 90 8 9 2 735 -7 870 -2 33 -7
110 -10 170 -4 61 -9 128 -11 150 -2 22 -7 81 -10 130 -3 50 -9 108 -11 130
-3 22 -7 59 -9 82 -4 39 -7 66 -21 183 -3 25 -7 61 -9 80 -8 69 -16 125 -20
150 -2 14 -7 45 -10 70 -7 55 -14 97 -20 130 -5 24 -6 35 -20 130 -3 25 -13
77 -21 117 -7 39 -17 89 -20 110 -3 21 -9 56 -14 78 -5 22 -12 56 -15 75 -36
206 -156 693 -252 1025 -85 294 -292 904 -353 1040 -5 11 -41 99 -80 195 -180
440 -419 933 -638 1315 -41 72 -83 144 -92 161 l-18 30 36 25 c44 30 245 180
252 188 3 4 30 26 60 51 130 106 341 311 445 431 39 45 75 87 80 93 6 6 47 58
92 116 357 466 583 942 677 1425 35 181 41 264 41 530 -1 352 -17 532 -81 880
-15 86 -71 296 -110 413 -195 588 -523 1034 -979 1331 -131 85 -272 157 -420
214 -113 44 -293 100 -360 111 -32 6 -48 9 -130 26 -27 5 -72 13 -100 16 -27
3 -61 8 -75 10 -14 2 -106 6 -205 9 -194 4 -278 -6 -390 -47 -221 -81 -357
-210 -700 -663 -362 -480 -498 -596 -716 -613 -62 -4 -70 -2 -113 27 -140 96
-464 260 -681 343 -96 37 -298 106 -333 113 -9 2 -60 15 -112 29 -52 15 -111
29 -130 32 -19 3 -55 10 -80 15 -67 15 -197 37 -265 44 -32 4 -62 8 -65 10 -3
2 -50 6 -105 10 -55 4 -120 9 -145 11 -62 5 -456 4 -505 -1 -22 -2 -74 -6
-117 -9 -42 -3 -91 -8 -110 -10 -18 -3 -54 -7 -79 -11 -25 -3 -59 -8 -75 -11
-16 -2 -56 -9 -89 -15 -125 -21 -356 -83 -537 -144 l-188 -62 -173 58 c-229
76 -456 136 -587 154 -25 3 -52 8 -60 10 -8 2 -39 7 -69 10 -30 4 -62 8 -72
10 -10 2 -58 7 -106 10 -48 4 -104 9 -123 11 -40 4 -468 4 -520 0 -19 -2 -75
-6 -125 -10 -290 -23 -673 -104 -965 -204 -212 -73 -517 -211 -663 -301 -37
-22 -69 -41 -71 -41 -3 0 -33 -19 -67 -41 -60 -40 -64 -41 -128 -36 -169 12
-322 116 -501 337 -25 30 -48 57 -51 60 -3 3 -70 91 -149 195 -244 322 -384
482 -491 563 -167 124 -323 170 -580 169 -76 0 -140 -1 -141 -2z m98 -1472
c71 -96 222 -290 261 -334 149 -170 319 -335 428 -415 22 -16 42 -31 45 -34 3
-4 26 -21 52 -39 27 -19 45 -39 41 -45 -4 -6 -25 -36 -48 -66 -108 -143 -274
-400 -365 -565 -18 -33 -42 -76 -53 -95 -28 -51 -161 -316 -198 -397 -133
-290 -283 -700 -389 -1061 l-21 -73 -27 22 c-15 11 -54 47 -87 78 -385 371
-648 806 -736 1218 -28 130 -30 432 -4 638 8 64 18 131 21 150 2 11 6 34 9 50
20 119 68 287 115 399 75 180 152 300 265 412 112 112 297 193 500 220 21 2
40 6 42 8 2 1 23 4 48 4 44 2 44 2 101 -75z m11284 62 c129 -21 249 -59 345
-108 124 -64 243 -193 348 -377 47 -82 127 -298 152 -408 15 -67 35 -163 39
-194 19 -126 24 -164 32 -263 12 -161 11 -367 -3 -455 -35 -223 -140 -483
-292 -725 -129 -206 -257 -362 -446 -545 -38 -38 -82 -78 -97 -89 l-27 -22
-21 73 c-63 217 -232 703 -285 823 -8 17 -39 89 -71 160 -98 225 -265 549
-377 730 -45 74 -231 351 -282 421 l-44 60 87 64 c186 138 411 358 559 550 6
8 31 40 55 70 24 30 77 99 117 153 53 69 80 97 95 97 12 0 64 -7 116 -15z
m-6805 -579 c52 -7 109 -15 165 -21 180 -22 382 -84 690 -211 l210 -86 183 75
c353 146 493 189 743 226 221 33 742 36 944 6 495 -75 901 -256 1285 -573 84
-70 294 -275 375 -367 264 -298 513 -711 710 -1175 29 -69 58 -138 65 -155 83
-195 279 -827 311 -1003 3 -12 13 -59 24 -105 10 -45 22 -98 25 -117 21 -126
54 -214 115 -305 43 -64 150 -241 198 -325 11 -19 37 -66 59 -105 120 -210
373 -698 373 -719 0 -6 -10 -20 -22 -30 -13 -11 -41 -35 -63 -55 -49 -43 -80
-69 -205 -170 -52 -42 -96 -79 -98 -83 -2 -5 -8 -8 -14 -8 -5 0 -16 -7 -25
-16 -64 -63 -578 -402 -817 -538 -136 -78 -281 -158 -343 -191 l-73 -37 54
-102 c30 -55 69 -130 88 -166 32 -60 60 -112 143 -265 29 -54 55 -102 160
-300 92 -172 120 -225 148 -275 17 -30 31 -56 32 -58 1 -1 29 12 61 29 587
319 979 573 1500 972 13 10 24 17 24 14 0 -2 14 -44 31 -93 89 -255 243 -775
231 -784 -4 -4 -34 -29 -67 -56 -82 -69 -241 -188 -355 -266 -85 -59 -337
-218 -344 -218 -2 0 -46 -24 -97 -53 -106 -59 -367 -187 -464 -228 -11 -4 -45
-19 -75 -32 -30 -13 -82 -34 -115 -47 -33 -13 -64 -26 -68 -30 -8 -7 11 -64
90 -270 14 -36 29 -74 33 -85 5 -11 46 -117 90 -235 45 -118 85 -224 90 -235
6 -11 44 -110 85 -220 42 -109 77 -200 79 -202 4 -4 187 68 326 130 306 136
631 310 949 511 106 67 156 93 162 85 4 -6 12 -55 19 -108 6 -53 13 -107 15
-121 3 -25 13 -106 20 -170 2 -19 6 -57 9 -85 3 -27 8 -79 11 -115 3 -36 8
-87 10 -115 5 -55 16 -248 19 -309 1 -38 -1 -41 -60 -77 -231 -141 -599 -304
-959 -424 -324 -108 -1025 -290 -1350 -349 -16 -3 -93 -19 -170 -35 -77 -16
-141 -28 -143 -27 -1 2 -5 25 -7 52 -3 27 -8 69 -10 94 -6 43 -10 87 -20 195
-3 28 -8 68 -11 90 -7 46 -9 60 -18 135 -15 112 -65 406 -95 555 -238 1178
-696 2246 -1345 3135 -50 69 -96 132 -103 140 -6 8 -42 53 -79 100 -259 326
-573 649 -879 904 -172 144 -396 312 -380 286 5 -8 34 -53 65 -100 200 -301
460 -788 650 -1220 96 -218 268 -651 299 -751 5 -19 28 -86 51 -149 23 -63 43
-122 45 -130 1 -8 17 -58 34 -110 136 -423 295 -1086 371 -1555 12 -71 23
-141 25 -154 11 -65 18 -115 30 -216 3 -33 8 -71 11 -85 5 -29 30 -255 39
-355 3 -38 8 -83 10 -100 2 -16 7 -75 10 -130 4 -55 8 -122 10 -150 8 -101 17
-335 20 -522 3 -191 2 -193 -19 -193 -17 0 -38 -33 -118 -193 -202 -402 -388
-725 -524 -908 l-64 -86 -62 9 c-375 49 -792 231 -1128 491 -266 206 -539 506
-710 779 -30 48 -57 88 -60 88 -3 0 -21 -24 -40 -52 -94 -139 -215 -290 -335
-417 -440 -465 -917 -748 -1434 -851 -75 -15 -140 -25 -146 -23 -14 5 -120
150 -197 268 -126 194 -249 413 -396 702 -82 164 -100 193 -119 193 l-23 0 5
217 c3 120 7 259 10 308 2 50 7 140 10 200 3 61 7 126 10 145 2 19 7 73 10
120 3 47 8 96 10 110 2 14 7 59 10 100 4 41 8 86 10 100 2 14 9 69 15 124 7
54 13 106 15 115 1 9 6 41 10 71 4 30 9 62 10 71 2 9 6 40 10 69 4 29 9 62 11
74 2 12 7 37 10 56 2 19 9 58 14 85 5 28 12 66 15 85 9 56 14 83 20 110 3 14
8 39 11 55 10 60 46 231 54 265 5 19 11 49 14 65 18 101 148 590 221 830 226
745 599 1611 941 2182 80 133 115 189 164 263 78 118 78 117 34 85 -124 -91
-158 -117 -249 -189 -97 -78 -193 -159 -285 -241 -24 -22 -123 -119 -220 -215
-214 -215 -405 -434 -579 -665 -29 -38 -58 -77 -64 -85 -105 -132 -328 -480
-500 -782 -99 -172 -288 -568 -385 -803 -63 -154 -65 -158 -67 -170 -2 -5 -16
-44 -33 -85 -110 -278 -254 -766 -341 -1160 -30 -135 -35 -160 -47 -235 -3
-22 -7 -42 -9 -45 -2 -3 -6 -24 -9 -46 -4 -22 -9 -51 -11 -64 -13 -67 -50
-307 -61 -395 -2 -22 -7 -53 -9 -70 -3 -16 -7 -59 -11 -95 -3 -36 -7 -76 -10
-90 -4 -24 -13 -131 -18 -200 -3 -38 -10 -41 -61 -28 -16 4 -43 10 -60 12 -16
3 -84 17 -150 31 -65 14 -133 28 -150 31 -16 3 -46 9 -65 14 -19 5 -107 26
-195 46 -517 115 -959 246 -1325 391 -164 64 -495 224 -620 299 l-66 39 2 45
c2 42 14 237 19 305 9 121 18 223 21 240 2 11 6 49 10 85 3 36 7 76 9 90 2 14
7 48 10 75 4 28 8 61 10 75 14 94 18 127 17 143 0 9 4 17 9 17 6 0 66 -36 134
-80 319 -205 685 -402 1000 -538 156 -68 297 -124 299 -120 7 12 35 84 96 245
39 103 75 197 81 208 5 11 20 52 34 90 14 39 30 79 35 90 40 86 230 608 224
614 -5 4 -36 18 -69 31 -534 207 -1101 542 -1506 891 -18 16 -17 22 40 220 78
269 202 653 214 665 1 1 56 -39 122 -89 140 -108 315 -233 470 -338 157 -106
411 -269 420 -269 2 0 32 -17 67 -38 108 -66 249 -147 353 -202 146 -78 149
-79 151 -77 0 1 20 38 44 82 24 44 55 103 70 130 15 28 51 95 80 150 29 55 60
114 70 130 9 17 39 71 65 120 26 50 62 117 80 150 73 136 183 342 198 372 l17
31 -83 43 c-255 131 -790 457 -973 593 -23 17 -55 40 -70 51 -120 85 -362 277
-448 355 -22 19 -50 45 -63 56 -12 12 -23 26 -23 32 0 6 41 91 91 189 86 167
108 208 210 399 92 172 255 448 331 562 60 89 78 139 118 330 155 728 406
1414 707 1932 53 90 200 319 212 330 4 3 33 41 66 85 255 343 616 661 955 843
298 159 642 262 965 288 44 4 82 8 84 10 6 6 560 -4 606 -10z m1094 -11478
c135 -356 395 -755 689 -1057 34 -36 62 -68 62 -72 0 -6 -126 -33 -210 -45
-219 -31 -324 -38 -565 -38 -186 0 -371 8 -438 19 -12 2 -58 9 -102 15 -44 6
-120 19 -168 28 l-89 17 64 65 c89 91 192 210 266 307 61 81 202 288 202 298
0 2 16 29 35 59 48 75 171 332 206 429 7 20 16 37 19 37 3 0 16 -28 29 -62z"/>
<path d="M5537 13354 c-1 -1 -51 -5 -112 -8 -154 -9 -150 -8 -149 -42 2 -43
15 -203 19 -222 1 -9 6 -60 10 -112 4 -52 9 -102 10 -112 2 -10 7 -59 11 -110
3 -51 8 -100 9 -109 2 -9 6 -56 10 -105 4 -49 9 -97 11 -107 1 -10 6 -53 9
-95 4 -42 8 -90 10 -107 2 -16 6 -66 10 -110 4 -44 8 -86 10 -94 1 -11 57 -14
296 -16 162 -1 305 -5 319 -8 14 -3 52 -8 84 -12 313 -34 658 -144 896 -286
162 -97 341 -277 428 -429 11 -19 106 -186 212 -370 106 -184 226 -395 268
-467 42 -73 79 -133 82 -133 3 0 142 225 309 500 167 274 327 527 355 562 175
212 454 384 806 497 101 32 266 74 340 86 50 8 73 12 110 20 14 2 51 7 83 10
32 4 66 8 77 10 46 9 240 18 392 19 91 1 169 3 171 6 3 3 8 64 12 135 3 72 8
153 10 180 2 28 7 95 10 150 3 55 8 125 10 155 6 94 20 316 30 490 3 58 8 130
11 160 l5 56 -193 -2 c-180 -2 -325 -8 -443 -19 -191 -19 -367 -42 -451 -59
-12 -2 -38 -7 -58 -10 -19 -3 -57 -11 -83 -17 -27 -6 -59 -13 -73 -15 -95 -18
-337 -101 -475 -163 -279 -126 -529 -276 -792 -477 l-121 -93 -94 76 c-51 42
-129 102 -173 134 -44 32 -85 63 -92 69 -24 20 -181 118 -288 180 -93 54 -225
120 -350 175 -96 43 -341 122 -425 139 -14 2 -50 10 -80 16 -103 20 -117 22
-200 34 -57 9 -110 15 -180 22 -30 3 -66 7 -80 9 -51 9 -515 26 -523 19z"/>
<path d="M4390 10643 c0 -10 -4 -52 -8 -93 -17 -194 -5 -427 34 -615 31 -150
27 -135 59 -230 165 -494 522 -830 1070 -1007 298 -96 673 -25 1005 191 51 33
159 110 170 121 3 3 27 23 55 45 70 56 215 199 215 211 0 6 -28 25 -62 43 -35
19 -85 46 -113 61 -27 15 -95 51 -150 80 -96 51 -133 71 -255 137 -64 35 -110
60 -490 263 -375 201 -426 228 -485 260 -27 15 -90 49 -140 75 -49 26 -119 63
-155 83 -112 60 -202 108 -285 152 -44 24 -102 55 -130 70 -27 15 -90 49 -140
75 -49 27 -109 59 -133 72 -51 28 -62 29 -62 6z"/>
<path d="M11555 10642 c-16 -10 -109 -60 -205 -112 -96 -51 -197 -105 -225
-120 -27 -15 -149 -80 -270 -145 -121 -65 -242 -130 -270 -145 -27 -15 -95
-51 -150 -80 -55 -29 -152 -81 -215 -115 -63 -34 -212 -114 -330 -177 -118
-64 -246 -132 -285 -153 -146 -78 -300 -161 -507 -272 -49 -25 -88 -52 -88
-58 0 -19 142 -151 305 -284 34 -27 187 -126 246 -159 72 -40 217 -100 299
-124 243 -70 488 -54 725 47 17 7 64 27 105 44 264 112 509 318 665 559 146
227 235 506 264 829 7 86 6 358 -3 398 -3 11 -5 35 -5 53 -1 37 -13 40 -56 14z"/>
<path d="M7687 6664 c-1 -1 -65 -5 -142 -8 -157 -7 -217 -12 -355 -27 -153
-16 -184 -20 -200 -24 -8 -2 -35 -7 -60 -10 -25 -3 -67 -10 -95 -15 -27 -5
-61 -12 -75 -14 -361 -65 -646 -196 -727 -334 l-28 -47 -3 -290 -3 -290 223
-177 c123 -97 259 -205 302 -240 l79 -64 31 28 c140 129 293 170 444 119 91
-31 138 -64 176 -124 75 -117 69 -271 -15 -379 l-28 -36 32 -24 c98 -73 502
-321 631 -387 75 -38 99 -46 141 -45 88 3 260 82 524 241 155 94 317 199 325
211 3 5 -12 42 -34 83 -90 173 -101 388 -23 471 25 26 103 65 152 75 55 12
152 5 219 -16 88 -26 224 -116 221 -145 -3 -24 2 -36 23 -56 21 -19 23 -19 47
-3 58 38 285 238 379 333 79 80 166 191 191 244 21 42 23 60 23 238 0 217 -5
239 -69 303 -61 61 -141 108 -288 170 -199 83 -676 178 -1055 210 -36 3 -87 7
-115 9 -151 13 -309 19 -563 21 -155 1 -283 0 -285 -1z"/>
</g>
</svg>
